<?xml version="1.0" encoding="UTF-8"?>
<svg xmlns="http://www.w3.org/2000/svg" width="291" height="171" viewBox="0 0 291 171" role="img" aria-label="ScholarMate icon">
  <title>ScholarMate icon</title>
  <desc>Text removed and transparent background logo icon vectorized from the provided image.</desc>
  <path fill="#47AE6A" stroke="#47AE6A" stroke-width="1" stroke-linejoin="round" stroke-linecap="round" d="M 11.0 128.0 L 11.0 137.0 L 12.0 139.0 L 18.0 144.0 L 22.0 145.0 L 39.0 145.0 L 40.0 146.0 L 52.0 146.0 L 53.0 147.0 L 80.0 149.0 L 81.0 150.0 L 119.0 155.0 L 141.0 160.0 L 141.0 152.0 L 138.0 149.0 L 111.0 137.0 L 80.0 127.0 L 49.0 121.0 L 24.0 120.0 L 23.0 119.0 L 15.0 122.0 Z"/>
  <path fill="#47AE6A" stroke="#47AE6A" stroke-width="1" stroke-linejoin="round" stroke-linecap="round" d="M 56.0 102.0 L 57.0 109.0 L 63.0 113.0 L 66.0 113.0 L 93.0 122.0 L 130.0 137.0 L 139.0 142.0 L 141.0 141.0 L 141.0 136.0 L 129.0 126.0 L 113.0 115.0 L 92.0 104.0 L 70.0 96.0 L 61.0 96.0 L 58.0 98.0 Z"/>
  <path fill="#0071BC" stroke="#0071BC" stroke-width="1" stroke-linejoin="round" stroke-linecap="round" d="M 279.0 131.0 L 276.0 124.0 L 270.0 120.0 L 245.0 121.0 L 244.0 122.0 L 237.0 122.0 L 216.0 126.0 L 183.0 136.0 L 162.0 145.0 L 149.0 152.0 L 149.0 159.0 L 180.0 154.0 L 186.0 152.0 L 222.0 148.0 L 223.0 147.0 L 270.0 144.0 L 277.0 139.0 Z"/>
  <path fill="#0071BC" stroke="#0071BC" stroke-width="1" stroke-linejoin="round" stroke-linecap="round" d="M 233.0 101.0 L 231.0 98.0 L 227.0 96.0 L 223.0 96.0 L 193.0 107.0 L 167.0 122.0 L 154.0 132.0 L 149.0 137.0 L 149.0 139.0 L 151.0 141.0 L 187.0 125.0 L 204.0 120.0 L 210.0 117.0 L 226.0 113.0 L 232.0 109.0 Z"/>
  <path fill="#3084B5" stroke="#3084B5" stroke-width="1" stroke-linejoin="round" stroke-linecap="round" d="M 212.0 51.0 L 208.0 47.0 L 203.0 45.0 L 198.0 41.0 L 145.0 10.0 L 79.0 48.0 L 78.0 50.0 L 78.0 64.0 L 76.0 65.0 L 76.0 86.0 L 80.0 86.0 L 80.0 65.0 L 78.0 63.0 L 78.0 55.0 L 79.0 54.0 L 85.0 56.0 L 114.0 72.0 L 114.0 91.0 L 145.0 95.0 L 145.0 51.0 L 146.0 50.0 L 177.0 61.0 L 178.0 62.0 L 178.0 71.0 L 210.0 55.0 Z"/>
  <path fill="#45B0E5" stroke="#45B0E5" stroke-width="1" stroke-linejoin="round" stroke-linecap="round" d="M 188.0 67.0 L 178.0 72.0 L 177.0 71.0 L 177.0 62.0 L 146.0 51.0 L 146.0 95.0 L 145.0 96.0 L 114.0 92.0 L 113.0 91.0 L 113.0 72.0 L 103.0 67.0 L 112.0 72.0 L 112.0 92.0 L 130.0 94.0 L 131.0 95.0 L 139.0 95.0 L 140.0 96.0 L 150.0 96.0 L 151.0 95.0 L 159.0 95.0 L 160.0 94.0 L 178.0 92.0 L 178.0 73.0 Z"/>
  <path fill="#45B0E5" stroke="#45B0E5" stroke-width="1" stroke-linejoin="round" stroke-linecap="round" d="M 280.0 128.0 L 278.0 124.0 L 271.0 119.0 L 251.0 119.0 L 250.0 120.0 L 242.0 120.0 L 241.0 121.0 L 218.0 124.0 L 181.0 135.0 L 152.0 148.0 L 147.0 153.0 L 147.0 160.0 L 148.0 160.0 L 148.0 152.0 L 151.0 149.0 L 185.0 134.0 L 219.0 124.0 L 235.0 121.0 L 241.0 121.0 L 242.0 120.0 L 250.0 120.0 L 251.0 119.0 L 271.0 119.0 L 278.0 125.0 L 280.0 129.0 L 280.0 135.0 L 279.0 138.0 L 271.0 145.0 L 216.0 149.0 L 215.0 150.0 L 194.0 152.0 L 193.0 153.0 L 188.0 153.0 L 187.0 154.0 L 182.0 154.0 L 150.0 160.0 L 156.0 160.0 L 178.0 155.0 L 184.0 155.0 L 185.0 154.0 L 203.0 152.0 L 204.0 151.0 L 211.0 151.0 L 212.0 150.0 L 219.0 150.0 L 220.0 149.0 L 253.0 147.0 L 254.0 146.0 L 269.0 146.0 L 274.0 144.0 L 279.0 139.0 Z"/>
  <path fill="#45B0E5" stroke="#45B0E5" stroke-width="1" stroke-linejoin="round" stroke-linecap="round" d="M 147.0 10.0 L 211.0 48.0 L 213.0 51.0 L 212.0 54.0 L 200.0 61.0 L 212.0 55.0 L 213.0 50.0 L 209.0 46.0 Z"/>
  <path fill="#45B0E5" stroke="#45B0E5" stroke-width="1" stroke-linejoin="round" stroke-linecap="round" d="M 138.0 13.0 L 107.0 30.0 L 78.0 48.0 L 77.0 50.0 L 77.0 63.0 L 75.0 65.0 L 75.0 86.0 L 76.0 87.0 L 81.0 86.0 L 81.0 65.0 L 79.0 63.0 L 79.0 56.0 L 80.0 55.0 L 101.0 66.0 L 85.0 57.0 L 79.0 55.0 L 79.0 63.0 L 81.0 65.0 L 81.0 86.0 L 76.0 87.0 L 75.0 86.0 L 75.0 65.0 L 77.0 64.0 L 77.0 50.0 L 78.0 48.0 Z"/>
  <path fill="#45B0E5" stroke="#45B0E5" stroke-width="1" stroke-linejoin="round" stroke-linecap="round" d="M 198.0 123.0 L 166.0 135.0 L 150.0 143.0 L 149.0 142.0 L 148.0 136.0 L 168.0 120.0 L 185.0 110.0 L 174.0 116.0 L 149.0 134.0 L 148.0 142.0 L 151.0 143.0 L 181.0 129.0 Z"/>
  <path fill="#45B0E5" stroke="#45B0E5" stroke-width="1" stroke-linejoin="round" stroke-linecap="round" d="M 11.0 138.0 L 16.0 144.0 L 21.0 146.0 L 37.0 146.0 L 38.0 147.0 L 70.0 149.0 L 71.0 150.0 L 93.0 152.0 L 94.0 153.0 L 139.0 160.0 L 107.0 154.0 L 102.0 154.0 L 101.0 153.0 L 81.0 151.0 L 80.0 150.0 L 53.0 148.0 L 52.0 147.0 L 40.0 147.0 L 39.0 146.0 L 22.0 146.0 L 15.0 143.0 Z"/>
  <path fill="#45B0E5" stroke="#45B0E5" stroke-width="1" stroke-linejoin="round" stroke-linecap="round" d="M 235.0 102.0 L 234.0 99.0 L 231.0 96.0 L 221.0 95.0 L 195.0 105.0 L 215.0 97.0 L 218.0 97.0 L 222.0 95.0 L 228.0 95.0 L 234.0 100.0 L 234.0 108.0 L 229.0 113.0 L 224.0 114.0 L 229.0 113.0 L 234.0 109.0 Z"/>
  <path fill="#45B0E5" stroke="#45B0E5" stroke-width="1" stroke-linejoin="round" stroke-linecap="round" d="M 57.0 122.0 L 67.0 123.0 L 94.0 130.0 L 111.0 136.0 L 133.0 146.0 L 114.0 137.0 L 88.0 128.0 L 62.0 122.0 Z"/>
  <path fill="#45B0E5" stroke="#45B0E5" stroke-width="1" stroke-linejoin="round" stroke-linecap="round" d="M 114.0 115.0 L 139.0 133.0 L 142.0 136.0 L 142.0 139.0 L 142.0 136.0 L 137.0 131.0 Z"/>
  <path fill="#45B0E5" stroke="#45B0E5" stroke-width="1" stroke-linejoin="round" stroke-linecap="round" d="M 68.0 95.0 L 59.0 96.0 L 56.0 99.0 L 55.0 106.0 L 55.0 102.0 L 58.0 97.0 L 61.0 95.0 Z"/>
</svg>
